<svg xmlns="http://www.w3.org/2000/svg" width="240" height="40" viewBox="0 0 240 40" role="img" aria-label="Open in Colab">
  <defs>
    <linearGradient id="shine" x2="0" y2="1">
      <stop offset="0" stop-color="#fff" stop-opacity=".16"/>
      <stop offset="1" stop-color="#000" stop-opacity=".1"/>
    </linearGradient>
    <clipPath id="button"><rect width="240" height="40" rx="6"/></clipPath>
  </defs>
  <g clip-path="url(#button)">
    <path fill="#007ec6" d="M0 0h240v40H0z"/>
    <path fill="#555" d="M0 0h60v40H0z"/>
    <path fill="url(#shine)" d="M0 0h240v40H0z"/>
  </g>
  <path fill="#e8710a" d="M13 27c-4.7-4-4.6-12.4 0-16.4 1.7 1.2 2.8 3 4.5 4-2.1 2.8-2.1 5.6 0 8.4-1.7 1.1-2.8 2.9-4.5 4Z"/>
  <path fill="#f9ab00" d="M31 27.5c-3.1-2.9-4.4-6.6-3.7-10.8.8-5.2 3.9-8.7 8.9-10.1 4.6-1.3 9-.4 12.4 3.2-1.6 1.3-3.1 2.8-4.3 4.5-1.9-1.5-4-2.2-6.4-1.5-4.4 1.4-5.5 5.8-2.7 10.1-.4.5-.9 1-1.3 1.5-1 1.1-2.3 1.8-2.9 3.1Z"/>
  <path fill="#e8710a" d="M44.2 14.3c1.2-1.7 2.7-3.2 4.3-4.5 4.9 5 4.9 12.6 0 17.5-4.8 4.8-12.5 4.9-17.3.2.6-1.3 1.9-2 2.9-3.1.4-.5.9-1 1.3-1.5 1.9 1.6 4.1 2.3 6.5 1.5 4.3-1.4 5.5-6 2.3-10.1Z"/>
  <text x="70" y="27" fill="#010101" fill-opacity=".3" font-family="Arial, Verdana, sans-serif" font-size="21">Open in Colab</text>
  <text x="70" y="26" fill="#fff" font-family="Arial, Verdana, sans-serif" font-size="21">Open in Colab</text>
</svg>
