<svg xmlns="http://www.w3.org/2000/svg" width="240" height="40" viewBox="0 0 240 40" role="img" aria-label="Open in Colab">
  <defs>
    <linearGradient id="shine" x2="0" y2="1">
      <stop offset="0" stop-color="#fff" stop-opacity=".16"/>
      <stop offset="1" stop-color="#000" stop-opacity=".1"/>
    </linearGradient>
    <clipPath id="button"><rect width="240" height="40" rx="6"/></clipPath>
  </defs>
  <g clip-path="url(#button)">
    <path fill="#007ec6" d="M0 0h240v40H0z"/>
    <path fill="#555" d="M0 0h60v40H0z"/>
    <path fill="url(#shine)" d="M0 0h240v40H0z"/>
  </g>
  <svg x="5" y="2" width="52" height="36" viewBox="-2 0 28 24" aria-hidden="true">
    <path fill="#e8710a" d="M1.977 16.77c-2.667-2.277-2.605-7.079 0-9.357.942.644 1.545 1.662 2.513 2.278-1.152 1.6-1.146 3.201-.004 4.803-.964.617-1.568 1.632-2.509 2.276Z"/>
    <path fill="#f9ab00" d="M12.257 17.114c-1.767-1.633-2.485-3.658-2.118-6.02.451-2.91 2.139-4.893 4.946-5.678 2.565-.718 4.964-.217 6.878 1.819-.884.743-1.707 1.547-2.434 2.446-1.041-.854-2.21-1.246-3.529-.825-2.404.767-3.046 3.241-1.494 5.644-.241.275-.493.541-.721.826-.49.613-1.274.974-1.528 1.788Z"/>
    <path fill="#e8710a" d="M19.529 9.682c.727-.899 1.55-1.703 2.434-2.446 2.703 2.783 2.701 7.031-.005 9.764-2.648 2.674-6.936 2.725-9.701.115.254-.814 1.038-1.175 1.528-1.788.228-.285.48-.552.721-.826 1.053.916 2.254 1.268 3.6.83 2.396-.779 3.045-3.403 1.423-5.648Z"/>
    <path fill="#f9ab00" d="M4.49 9.691C3.522 9.075 2.919 8.057 1.977 7.413c2.209-2.398 5.721-2.942 8.476-1.355.555.32.719.606.285 1.128-.157.188-.258.422-.391.631-.299.47-.509 1.067-.929 1.371-.485.351-.895-.341-1.397-.442-1.348-.271-2.512.041-3.531.945Z"/>
    <path fill="#f9ab00" d="M1.977 16.77c.941-.644 1.545-1.659 2.509-2.277 1.373 1.152 2.85 1.433 4.45.499.332-.194.503-.088.673.19.386.635.753 1.285 1.181 1.89.34.48.222.715-.253 1.006-2.697 1.652-6.332 1.11-8.56-1.308Z"/>
  </svg>
  <text x="70" y="27" fill="#010101" fill-opacity=".3" font-family="Arial, Verdana, sans-serif" font-size="21">Open in Colab</text>
  <text x="70" y="26" fill="#fff" font-family="Arial, Verdana, sans-serif" font-size="21">Open in Colab</text>
</svg>
