<svg xmlns="http://www.w3.org/2000/svg" width="150" height="32" viewBox="0 0 150 32" role="img" aria-label="Open in Colab">
  <rect width="150" height="32" rx="6" fill="#fff" stroke="#e8710a"/>
  <path fill="#e8710a" d="M12 24c-4-3.4-4-10.6 0-14 1.4 1 2.3 2.5 3.8 3.4-1.8 2.5-1.8 5 0 7.5C14.3 21.6 13.4 23 12 24Z"/>
  <path fill="#f9ab00" d="M27.5 24.5c-2.7-2.5-3.8-5.6-3.2-9.2.7-4.5 3.3-7.5 7.6-8.7 3.9-1.1 7.6-.3 10.5 2.8-1.4 1.1-2.6 2.4-3.7 3.8-1.6-1.3-3.4-1.9-5.4-1.3-3.7 1.2-4.7 5-2.3 8.6-.4.4-.8.8-1.1 1.3-.8.9-2 1.5-2.4 2.7Z"/>
  <path fill="#e8710a" d="M38.7 13.1c1.1-1.4 2.3-2.7 3.7-3.8 4.1 4.3 4.1 10.8 0 15-4.1 4.1-10.7 4.2-14.9.2.4-1.2 1.6-1.8 2.4-2.7.3-.5.7-.9 1.1-1.3 1.6 1.4 3.5 1.9 5.5 1.3 3.7-1.2 4.7-5.2 2.2-8.7Z"/>
  <text x="55" y="21" fill="#3c4043" font-family="Arial, sans-serif" font-size="14" font-weight="600">Open in Colab</text>
</svg>
