<svg xmlns="http://www.w3.org/2000/svg" width="150" height="32" viewBox="0 0 150 32" role="img" aria-label="Open in GitHub">
  <rect width="150" height="32" rx="6" fill="#24292f"/>
  <path fill="#fff" d="M22 7a9 9 0 0 0-2.8 17.6c.5.1.6-.2.6-.4v-1.7c-2.2.5-2.8-.5-3-1.1-.1-.3-.5-1.1-.9-1.3-.3-.2-.8-.5 0-.5.7 0 1.2.6 1.4.9.8 1.4 2.1 1 2.6.8.1-.6.3-1 .6-1.2-2-.2-4.1-1-4.1-4.5 0-1 .4-1.8.9-2.4-.1-.2-.4-1.2.1-2.4 0 0 .8-.2 2.5.9a8.5 8.5 0 0 1 4.5 0c1.7-1.1 2.5-.9 2.5-.9.5 1.2.2 2.2.1 2.4.6.6.9 1.4.9 2.4 0 3.5-2.1 4.3-4.1 4.5.3.3.6.8.6 1.7v2.5c0 .2.2.5.7.4A9 9 0 0 0 22 7Z"/>
  <text x="43" y="21" fill="#fff" font-family="Arial, sans-serif" font-size="14" font-weight="600">Open in GitHub</text>
</svg>
