<svg xmlns="http://www.w3.org/2000/svg" width="240" height="40" viewBox="0 0 240 40" role="img" aria-label="Open in GitHub">
  <defs>
    <linearGradient id="shine" x2="0" y2="1">
      <stop offset="0" stop-color="#fff" stop-opacity=".16"/>
      <stop offset="1" stop-color="#000" stop-opacity=".1"/>
    </linearGradient>
    <clipPath id="button"><rect width="240" height="40" rx="6"/></clipPath>
  </defs>
  <g clip-path="url(#button)">
    <path fill="#007ec6" d="M0 0h240v40H0z"/>
    <path fill="#555" d="M0 0h60v40H0z"/>
    <path fill="url(#shine)" d="M0 0h240v40H0z"/>
  </g>
  <path fill="#fff" d="M30 9a11 11 0 0 0-3.4 21.5c.6.1.8-.2.8-.5v-2.1c-2.7.5-3.4-.6-3.6-1.3-.1-.3-.6-1.2-1-1.5-.3-.2-.9-.6 0-.6.8 0 1.4.7 1.6 1.1 1 1.5 2.6 1.1 3.1.8.1-.6.3-1 .6-1.3-2.4-.3-4.9-1.2-4.9-5.4 0-1.2.4-2.1 1.1-2.9-.1-.3-.5-1.4.1-2.9 0 0 .9-.3 3 1.1a10.1 10.1 0 0 1 5.4 0c2.1-1.4 3-1.1 3-1.1.6 1.5.2 2.6.1 2.9.7.8 1.1 1.7 1.1 2.9 0 4.2-2.5 5.1-4.9 5.4.4.3.7 1 .7 2v3.4c0 .3.2.6.8.5A11 11 0 0 0 30 9Z"/>
  <text x="70" y="27" fill="#010101" fill-opacity=".3" font-family="Arial, Verdana, sans-serif" font-size="21">Open in GitHub</text>
  <text x="70" y="26" fill="#fff" font-family="Arial, Verdana, sans-serif" font-size="21">Open in GitHub</text>
</svg>
